<?xml version="1.0" encoding="UTF-8" standalone="no"?>
<!DOCTYPE svg PUBLIC "-//W3C//DTD SVG 1.1//EN"
 "http://www.w3.org/Graphics/SVG/1.1/DTD/svg11.dtd">
<!-- Generated by graphviz version 2.44.0 ()
 -->
<!-- Title: Foo Pages: 1 -->
<svg width="211pt" height="332pt"
 viewBox="0.00 0.00 211.00 332.00" xmlns="http://www.w3.org/2000/svg" xmlns:xlink="http://www.w3.org/1999/xlink">
<g id="graph0" class="graph" transform="scale(1 1) rotate(0) translate(4 328)">
<title>Foo</title>
<polygon fill="white" stroke="transparent" points="-4,4 -4,-328 207,-328 207,4 -4,4"/>
<!-- dockerfile -->
<g id="node1" class="node">
<title>dockerfile</title>
<polygon fill="#e0ffe0" stroke="lightgray" points="203,-324 0,-324 0,-288 203,-288 203,-324"/>
<text text-anchor="middle" x="101.5" y="-302.9" font-family="Helvetica,sans-Serif" font-size="12.00">value: file plan_generator/Dockerfile</text>
</g>
<!-- build_mytool -->
<g id="node2" class="node">
<title>build_mytool</title>
<ellipse fill="#bfefff" stroke="lightgray" cx="101.5" cy="-234" rx="71.32" ry="18"/>
<text text-anchor="middle" x="101.5" y="-230.9" font-family="Helvetica,sans-Serif" font-size="12.00">action: build image</text>
</g>
<!-- dockerfile&#45;&gt;build_mytool -->
<g id="edge1" class="edge">
<title>dockerfile&#45;&gt;build_mytool</title>
<path fill="none" stroke="black" d="M101.5,-287.7C101.5,-279.98 101.5,-270.71 101.5,-262.11"/>
<polygon fill="black" stroke="black" points="105,-262.1 101.5,-252.1 98,-262.1 105,-262.1"/>
</g>
<!-- mytool -->
<g id="node3" class="node">
<title>mytool</title>
<polygon fill="#ffe0e0" stroke="lightgray" points="195,-180 8,-180 8,-144 195,-144 195,-180"/>
<text text-anchor="middle" x="101.5" y="-158.9" font-family="Helvetica,sans-Serif" font-size="12.00">value: image plan_generator:1.0</text>
</g>
<!-- build_mytool&#45;&gt;mytool -->
<g id="edge2" class="edge">
<title>build_mytool&#45;&gt;mytool</title>
<path fill="none" stroke="black" d="M101.5,-215.7C101.5,-207.98 101.5,-198.71 101.5,-190.11"/>
<polygon fill="black" stroke="black" points="105,-190.1 101.5,-180.1 98,-190.1 105,-190.1"/>
</g>
<!-- rungen -->
<g id="node4" class="node">
<title>rungen</title>
<ellipse fill="#bfefff" stroke="lightgray" cx="101.5" cy="-90" rx="49.5" ry="18"/>
<text text-anchor="middle" x="101.5" y="-86.9" font-family="Helvetica,sans-Serif" font-size="12.00">action: exec</text>
</g>
<!-- mytool&#45;&gt;rungen -->
<g id="edge3" class="edge">
<title>mytool&#45;&gt;rungen</title>
<path fill="none" stroke="black" d="M101.5,-143.7C101.5,-135.98 101.5,-126.71 101.5,-118.11"/>
<polygon fill="black" stroke="black" points="105,-118.1 101.5,-108.1 98,-118.1 105,-118.1"/>
</g>
<!-- json -->
<g id="node5" class="node">
<title>json</title>
<polygon fill="lightgray" stroke="lightgray" points="156.5,-36 46.5,-36 46.5,0 156.5,0 156.5,-36"/>
<text text-anchor="middle" x="101.5" y="-14.9" font-family="Helvetica,sans-Serif" font-size="12.00">value: plan JSON</text>
</g>
<!-- rungen&#45;&gt;json -->
<g id="edge4" class="edge">
<title>rungen&#45;&gt;json</title>
<path fill="none" stroke="black" d="M101.5,-71.7C101.5,-63.98 101.5,-54.71 101.5,-46.11"/>
<polygon fill="black" stroke="black" points="105,-46.1 101.5,-36.1 98,-46.1 105,-46.1"/>
</g>
</g>
</svg>
