<?xml version="1.0" encoding="UTF-8" standalone="no"?>
<!DOCTYPE svg PUBLIC "-//W3C//DTD SVG 1.1//EN"
 "http://www.w3.org/Graphics/SVG/1.1/DTD/svg11.dtd">
<!-- Generated by graphviz version 2.44.0 ()
 -->
<!-- Title: Foo Pages: 1 -->
<svg width="325pt" height="476pt"
 viewBox="0.00 0.00 324.50 476.00" xmlns="http://www.w3.org/2000/svg" xmlns:xlink="http://www.w3.org/1999/xlink">
<g id="graph0" class="graph" transform="scale(1 1) rotate(0) translate(4 472)">
<title>Foo</title>
<polygon fill="white" stroke="transparent" points="-4,4 -4,-472 320.5,-472 320.5,4 -4,4"/>
<!-- pull -->
<g id="node1" class="node">
<title>pull</title>
<ellipse fill="#bfefff" stroke="lightgray" cx="79" cy="-234" rx="67.2" ry="18"/>
<text text-anchor="middle" x="79" y="-230.9" font-family="Helvetica,sans-Serif" font-size="12.00">action: pull image</text>
</g>
<!-- pandoc -->
<g id="node2" class="node">
<title>pandoc</title>
<polygon fill="#ffe0e0" stroke="lightgray" points="158,-180 0,-180 0,-144 158,-144 158,-180"/>
<text text-anchor="middle" x="79" y="-158.9" font-family="Helvetica,sans-Serif" font-size="12.00">value: image pandoc:latest</text>
</g>
<!-- pull&#45;&gt;pandoc -->
<g id="edge1" class="edge">
<title>pull&#45;&gt;pandoc</title>
<path fill="none" stroke="black" d="M79,-215.7C79,-207.98 79,-198.71 79,-190.11"/>
<polygon fill="black" stroke="black" points="82.5,-190.1 79,-180.1 75.5,-190.1 82.5,-190.1"/>
</g>
<!-- run2 -->
<g id="node8" class="node">
<title>run2</title>
<ellipse fill="#bfefff" stroke="lightgray" cx="157" cy="-90" rx="49.5" ry="18"/>
<text text-anchor="middle" x="157" y="-86.9" font-family="Helvetica,sans-Serif" font-size="12.00">action: exec</text>
</g>
<!-- pandoc&#45;&gt;run2 -->
<g id="edge8" class="edge">
<title>pandoc&#45;&gt;run2</title>
<path fill="none" stroke="black" d="M98.28,-143.7C108.37,-134.64 120.86,-123.44 131.71,-113.69"/>
<polygon fill="black" stroke="black" points="134.17,-116.19 139.27,-106.91 129.49,-110.98 134.17,-116.19"/>
</g>
<!-- dockerfile -->
<g id="node3" class="node">
<title>dockerfile</title>
<polygon fill="#e0ffe0" stroke="lightgray" points="316.5,-468 155.5,-468 155.5,-432 316.5,-432 316.5,-468"/>
<text text-anchor="middle" x="236" y="-446.9" font-family="Helvetica,sans-Serif" font-size="12.00">value: file my&#45;tool/Dockerfile</text>
</g>
<!-- build_mytool -->
<g id="node4" class="node">
<title>build_mytool</title>
<ellipse fill="#bfefff" stroke="lightgray" cx="236" cy="-378" rx="71.32" ry="18"/>
<text text-anchor="middle" x="236" y="-374.9" font-family="Helvetica,sans-Serif" font-size="12.00">action: build image</text>
</g>
<!-- dockerfile&#45;&gt;build_mytool -->
<g id="edge2" class="edge">
<title>dockerfile&#45;&gt;build_mytool</title>
<path fill="none" stroke="black" d="M236,-431.7C236,-423.98 236,-414.71 236,-406.11"/>
<polygon fill="black" stroke="black" points="239.5,-406.1 236,-396.1 232.5,-406.1 239.5,-406.1"/>
</g>
<!-- mytool -->
<g id="node5" class="node">
<title>mytool</title>
<polygon fill="#ffe0e0" stroke="lightgray" points="306.5,-324 165.5,-324 165.5,-288 306.5,-288 306.5,-324"/>
<text text-anchor="middle" x="236" y="-302.9" font-family="Helvetica,sans-Serif" font-size="12.00">value: image mytool:1.0</text>
</g>
<!-- build_mytool&#45;&gt;mytool -->
<g id="edge3" class="edge">
<title>build_mytool&#45;&gt;mytool</title>
<path fill="none" stroke="black" d="M236,-359.7C236,-351.98 236,-342.71 236,-334.11"/>
<polygon fill="black" stroke="black" points="239.5,-334.1 236,-324.1 232.5,-334.1 239.5,-334.1"/>
</g>
<!-- run -->
<g id="node6" class="node">
<title>run</title>
<ellipse fill="#bfefff" stroke="lightgray" cx="236" cy="-234" rx="49.5" ry="18"/>
<text text-anchor="middle" x="236" y="-230.9" font-family="Helvetica,sans-Serif" font-size="12.00">action: exec</text>
</g>
<!-- mytool&#45;&gt;run -->
<g id="edge4" class="edge">
<title>mytool&#45;&gt;run</title>
<path fill="none" stroke="black" d="M236,-287.7C236,-279.98 236,-270.71 236,-262.11"/>
<polygon fill="black" stroke="black" points="239.5,-262.1 236,-252.1 232.5,-262.1 239.5,-262.1"/>
</g>
<!-- g -->
<g id="node7" class="node">
<title>g</title>
<polygon fill="#e0ffe0" stroke="lightgray" points="295.5,-180 176.5,-180 176.5,-144 295.5,-144 295.5,-180"/>
<text text-anchor="middle" x="236" y="-158.9" font-family="Helvetica,sans-Serif" font-size="12.00">value: file report.md</text>
</g>
<!-- run&#45;&gt;g -->
<g id="edge5" class="edge">
<title>run&#45;&gt;g</title>
<path fill="none" stroke="black" d="M236,-215.7C236,-207.98 236,-198.71 236,-190.11"/>
<polygon fill="black" stroke="black" points="239.5,-190.1 236,-180.1 232.5,-190.1 239.5,-190.1"/>
</g>
<!-- g&#45;&gt;run2 -->
<g id="edge7" class="edge">
<title>g&#45;&gt;run2</title>
<path fill="none" stroke="black" d="M216.47,-143.7C206.25,-134.64 193.61,-123.44 182.61,-113.69"/>
<polygon fill="black" stroke="black" points="184.76,-110.92 174.95,-106.91 180.12,-116.16 184.76,-110.92"/>
</g>
<!-- y -->
<g id="node9" class="node">
<title>y</title>
<polygon fill="#e0ffe0" stroke="lightgray" points="219,-36 95,-36 95,0 219,0 219,-36"/>
<text text-anchor="middle" x="157" y="-14.9" font-family="Helvetica,sans-Serif" font-size="12.00">value: file report.html</text>
</g>
<!-- run2&#45;&gt;y -->
<g id="edge6" class="edge">
<title>run2&#45;&gt;y</title>
<path fill="none" stroke="black" d="M157,-71.7C157,-63.98 157,-54.71 157,-46.11"/>
<polygon fill="black" stroke="black" points="160.5,-46.1 157,-36.1 153.5,-46.1 160.5,-46.1"/>
</g>
</g>
</svg>
